<?xml version="1.0" standalone="no"?>
<!DOCTYPE svg PUBLIC "-//W3C//DTD SVG 20010904//EN"
 "http://www.w3.org/TR/2001/REC-SVG-20010904/DTD/svg10.dtd">
<svg version="1.0" xmlns="http://www.w3.org/2000/svg"
 width="860.000000pt" height="638.000000pt" viewBox="0 0 860.000000 638.000000"
 preserveAspectRatio="xMidYMid meet">

<g transform="translate(0.000000,638.000000) scale(0.100000,-0.100000)"
fill="#000000" stroke="none">
<path d="M5116 5152 c-35 -8 -43 -24 -21 -42 25 -20 19 -50 -10 -50 -25 0 -47
17 -75 57 -12 17 -29 23 -80 27 -64 6 -65 6 -25 -7 87 -29 147 -79 130 -107
-11 -18 -62 -3 -180 53 l-110 52 -210 -3 c-115 -1 -223 -3 -240 -3 l-30 -1 29
-7 c46 -10 41 -27 -11 -42 -29 -8 -79 -37 -128 -74 -44 -34 -106 -78 -137 -98
-32 -20 -58 -43 -58 -51 0 -8 17 -20 38 -27 110 -35 85 -68 -128 -171 -80 -38
-155 -79 -167 -91 -28 -26 -29 -61 -3 -87 28 -28 12 -56 -45 -81 -56 -25 -70
-42 -55 -68 12 -23 35 -26 73 -12 18 7 30 24 42 63 9 29 28 63 41 76 29 25 84
30 84 7 0 -8 8 -30 17 -50 l17 -35 -80 -76 c-43 -41 -94 -87 -111 -101 -18
-14 -33 -31 -33 -38 0 -7 -11 -24 -25 -39 -17 -19 -25 -38 -25 -64 l0 -37 24
35 c29 43 95 97 129 105 43 11 42 -14 -3 -58 -59 -59 -72 -87 -58 -125 10 -26
9 -34 -7 -51 -24 -27 -71 -27 -87 -1 -14 22 -28 26 -28 8 0 -6 -9 -21 -19 -32
-16 -17 -81 -163 -81 -181 0 -2 13 -2 30 1 23 5 31 2 36 -11 6 -15 16 -8 60
40 54 59 64 62 117 40 16 -7 48 21 140 123 25 27 113 99 147 119 80 47 222 83
331 83 84 0 97 -15 53 -61 -30 -32 -199 -149 -214 -149 -5 0 -18 -15 -29 -33
-23 -38 -28 -44 -136 -161 -86 -95 -135 -161 -135 -183 0 -30 26 -5 60 57 25
45 44 67 65 76 40 16 75 2 75 -28 0 -26 -9 -41 -87 -144 -48 -63 -112 -207
-113 -252 0 -7 -8 -31 -19 -55 -33 -75 -76 -341 -75 -462 1 -61 25 -111 58
-119 34 -8 83 -68 97 -118 21 -79 30 -94 93 -161 45 -49 69 -67 88 -67 30 0
92 -24 128 -50 38 -27 137 -58 242 -75 51 -9 135 -25 186 -37 153 -34 147 12
-8 67 -151 54 -310 159 -310 207 0 9 -20 31 -44 47 -64 44 -118 117 -182 248
-51 104 -58 124 -65 206 -13 139 5 266 53 377 88 202 165 310 221 310 21 0 27
-5 27 -20 0 -22 -24 -75 -45 -100 -23 -27 -85 -153 -91 -186 -7 -39 10 -74 36
-74 51 0 146 78 190 157 59 103 134 156 241 169 44 5 59 3 72 -11 23 -23 22
-28 -19 -68 l-36 -34 51 -48 c28 -26 51 -54 51 -62 0 -11 12 -13 59 -7 102 11
163 -13 130 -52 -9 -11 -7 -14 9 -14 11 0 34 -3 51 -6 29 -6 31 -5 31 25 0 28
3 31 29 31 17 0 32 -4 35 -9 3 -5 15 -11 26 -14 34 -9 6 28 -45 57 l-45 27 0
72 c0 49 -6 83 -18 106 -27 55 -41 58 -108 26 -69 -33 -146 -40 -152 -14 -2 9
11 31 29 48 28 29 30 35 20 57 -29 63 -3 90 100 104 108 14 190 12 223 -5 15
-8 45 -15 66 -15 50 0 78 -24 130 -110 78 -128 108 -228 78 -258 -7 -7 -31
-12 -54 -12 -37 0 -46 5 -67 33 -34 46 -45 85 -40 144 6 56 -11 81 -21 32 -4
-24 -14 -34 -45 -46 -37 -15 -61 -46 -61 -80 0 -30 88 -140 117 -148 64 -15
77 -63 50 -179 -10 -42 -19 -55 -57 -82 -60 -43 -209 -87 -270 -81 -54 6 -138
48 -172 85 -29 31 -58 101 -58 137 0 29 -41 45 -65 25 -19 -16 -18 -48 4 -132
14 -56 23 -72 57 -98 21 -18 45 -42 52 -56 26 -49 207 -73 301 -40 67 23 149
77 222 146 97 92 149 209 164 370 3 36 8 75 10 86 3 13 -5 32 -20 50 -64 73
-73 101 -112 321 -5 27 -1 37 26 62 17 16 31 34 31 41 0 16 -94 108 -155 151
-57 40 -154 79 -270 109 -104 27 -211 69 -230 90 -41 45 19 71 169 71 121 1
128 12 30 49 -125 46 -355 64 -544 41 -109 -13 -445 -95 -474 -116 -84 -61
-97 -68 -116 -59 -17 8 -17 12 -5 41 14 33 60 67 150 112 28 14 56 31 63 38
21 21 60 26 92 13 29 -12 100 -6 130 11 13 7 13 8 0 9 -8 0 -21 4 -29 9 -20
13 1 38 40 46 16 4 32 13 37 21 4 8 39 23 77 34 37 11 78 29 90 40 18 17 36
20 111 21 l89 1 -65 14 c-74 16 -122 33 -132 48 -10 15 -183 -9 -322 -44 -182
-46 -206 -38 -74 25 45 22 106 59 136 82 59 46 127 75 231 100 51 12 102 14
226 10 88 -3 182 -2 210 1 l50 7 -100 47 c-118 55 -151 79 -142 102 10 25 62
20 173 -18 127 -43 235 -97 287 -145 57 -52 89 -66 177 -81 118 -20 216 -66
326 -156 29 -24 56 -44 59 -44 3 0 5 9 5 19 0 28 96 76 125 63 37 -17 205
-223 205 -251 0 -14 -32 -14 -65 1 -14 6 -28 9 -31 5 -9 -9 15 -47 30 -47 17
0 69 -58 91 -100 24 -47 65 -208 75 -295 5 -44 12 -99 16 -122 5 -34 3 -44
-10 -49 -29 -11 -63 5 -76 36 -7 16 -16 30 -21 30 -5 0 -9 5 -9 12 0 14 -48
78 -59 78 -13 0 -22 -76 -12 -104 6 -13 26 -46 46 -72 l37 -48 -3 -205 c-2
-137 -7 -219 -16 -246 -7 -22 -13 -56 -13 -75 0 -19 -5 -53 -10 -75 -5 -22 -7
-41 -5 -43 6 -6 54 32 55 44 0 17 46 37 69 29 12 -3 21 -15 21 -26 0 -25 12
-24 36 4 31 34 44 73 44 127 0 46 -2 49 -27 52 -26 3 -28 7 -31 49 -3 39 0 47
21 56 22 10 23 16 23 95 -1 95 -18 133 -67 150 -37 13 -37 24 3 65 34 36 46
84 47 200 2 116 44 173 107 144 23 -10 29 -29 25 -78 -1 -12 5 -66 14 -120 11
-66 14 -123 9 -178 -7 -88 4 -113 45 -100 26 8 32 31 21 79 -10 44 -4 64 24
87 19 16 19 20 6 100 -7 48 -19 89 -28 95 -12 9 -12 15 2 47 15 38 8 49 -14
22 -7 -8 -18 -15 -26 -15 -20 0 -46 31 -39 48 5 15 -12 64 -88 247 -39 96
-189 384 -206 395 -4 3 -10 13 -14 23 -4 9 -15 20 -24 23 -67 23 -149 70 -212
124 -72 60 -117 85 -211 117 -94 31 -160 91 -117 106 26 9 -7 21 -86 29 -119
13 -277 18 -311 10z m30 -166 c17 -13 17 -15 2 -21 -20 -8 -61 12 -53 26 9 13
28 11 51 -5z m-946 -380 c0 -17 -56 -53 -100 -66 -58 -17 -103 19 -65 50 34
28 165 41 165 16z m-265 -26 c8 -12 -47 -40 -80 -40 -34 0 -32 13 8 33 37 18
63 21 72 7z m679 -256 c22 -8 20 -31 -4 -44 -10 -6 -53 -17 -94 -26 -57 -11
-80 -13 -96 -4 -24 13 -19 25 20 45 53 27 141 42 174 29z m-1006 -521 c-2 -9
-18 -23 -36 -30 -29 -12 -33 -11 -39 3 -8 21 21 44 55 44 17 0 23 -5 20 -17z"/>
<path d="M3721 4968 c-30 -8 -63 -28 -170 -101 -14 -9 -47 -24 -74 -32 -26 -8
-57 -21 -69 -29 -12 -9 -30 -16 -39 -16 -15 0 -36 -46 -27 -56 2 -2 22 3 43
11 22 8 48 14 57 15 9 0 30 11 46 25 17 14 32 25 34 25 3 0 36 20 74 45 38 25
91 53 117 63 26 9 60 27 75 39 l27 22 -30 0 c-16 -1 -45 -5 -64 -11z"/>
<path d="M4655 4840 c-22 -6 -9 -8 45 -8 41 0 86 4 100 8 33 11 -103 11 -145
0z"/>
<path d="M3575 4800 c-8 -13 5 -13 25 0 13 8 13 10 -2 10 -9 0 -20 -4 -23 -10z"/>
<path d="M4725 4760 c-8 -13 95 -13 115 0 11 7 -3 10 -47 10 -34 0 -65 -4 -68
-10z"/>
<path d="M5195 4686 c44 -28 103 -51 111 -43 9 9 -80 56 -117 63 l-34 5 40
-25z"/>
<path d="M4728 4633 c6 -2 18 -2 25 0 6 3 1 5 -13 5 -14 0 -19 -2 -12 -5z"/>
<path d="M4811 4615 c26 -7 64 -15 85 -18 33 -5 31 -3 -16 13 -30 10 -68 19
-85 18 -25 0 -23 -2 16 -13z"/>
<path d="M5862 4470 c39 -39 73 -69 75 -66 5 4 -69 93 -99 119 -11 9 -26 17
-34 17 -8 0 18 -32 58 -70z"/>
<path d="M5436 4351 c-3 -4 14 -48 38 -97 66 -135 85 -181 122 -284 18 -52 49
-126 69 -164 19 -38 35 -78 35 -90 0 -12 4 -26 9 -32 15 -15 41 -115 41 -156
0 -57 20 -128 36 -128 45 0 80 91 69 184 -7 68 -56 236 -110 381 -20 55 -43
123 -52 150 -8 28 -21 57 -28 65 -7 8 -18 31 -24 50 -6 19 -27 56 -46 83 -35
47 -35 47 -95 47 -32 0 -61 -4 -64 -9z"/>
<path d="M2784 4064 c11 -73 56 -131 56 -71 0 12 7 32 15 44 13 19 13 23 -3
42 -9 11 -30 23 -46 27 l-29 7 7 -49z"/>
<path d="M3430 4086 c-29 -10 -38 -20 -51 -62 -10 -28 -33 -65 -55 -88 -75
-76 -77 -90 -3 -23 140 128 157 145 168 166 10 18 9 21 -6 20 -10 0 -34 -6
-53 -13z"/>
<path d="M2576 3978 c-11 -43 -6 -86 13 -109 15 -19 22 -21 33 -11 12 10 12
20 -6 77 -23 69 -30 78 -40 43z"/>
<path d="M3431 3894 c-18 -15 -57 -62 -86 -103 -73 -104 -115 -142 -156 -144
-31 -2 -34 1 -37 30 -2 18 2 42 9 55 l12 23 -23 -20 c-12 -11 -50 -56 -83
-100 -33 -44 -75 -97 -93 -117 -19 -21 -45 -60 -59 -88 -32 -63 -63 -80 -100
-56 -15 10 -28 16 -29 14 -1 -2 -14 -23 -28 -48 -14 -25 -38 -56 -53 -70 -15
-14 -44 -49 -64 -79 -20 -30 -44 -66 -54 -80 -53 -79 -63 -117 -51 -205 6 -42
11 -49 45 -67 43 -22 59 -45 59 -86 0 -30 -44 -83 -68 -83 -7 0 -12 -4 -12
-10 0 -5 7 -10 16 -10 8 0 28 -13 44 -29 37 -37 32 -59 -31 -120 -27 -27 -49
-53 -49 -59 0 -5 30 -39 66 -75 l65 -65 -5 -82 c-4 -69 -8 -84 -25 -97 -12 -8
-21 -22 -21 -31 0 -25 133 -174 177 -199 28 -15 44 -19 61 -12 31 12 25 43 -8
47 -40 6 -52 21 -45 61 3 23 0 46 -10 65 -12 24 -13 31 -3 38 29 18 57 8 74
-24 9 -18 22 -36 28 -40 6 -4 43 -40 84 -80 57 -57 72 -78 70 -98 -2 -20 -9
-26 -35 -28 -39 -4 -40 -8 -9 -33 34 -27 42 -56 20 -80 -16 -18 -16 -19 5 -19
12 0 35 10 51 21 39 30 87 22 175 -29 63 -36 71 -38 77 -22 17 46 47 29 51
-29 2 -40 5 -44 37 -55 21 -7 46 -27 65 -53 27 -37 35 -42 72 -42 49 -1 162
-28 182 -45 8 -6 23 -30 33 -53 22 -50 33 -52 112 -22 84 32 140 7 117 -54 -9
-24 -7 -25 33 -31 24 -4 66 -16 95 -27 53 -20 265 -126 313 -156 26 -17 27
-16 55 11 44 44 82 59 151 60 42 0 59 3 52 10 -5 5 -10 16 -10 23 0 17 53 17
166 -1 166 -27 269 -37 401 -39 73 -2 134 0 135 3 2 3 23 22 46 43 43 38 45
39 100 32 43 -5 67 -2 97 11 22 9 51 20 64 25 32 13 13 33 -44 48 -44 11 -63
26 -50 39 4 4 58 9 120 12 90 4 118 9 131 22 17 16 16 19 -1 52 -18 34 -18 36
-1 55 18 20 120 63 181 77 44 10 97 39 123 66 22 24 22 26 7 62 -25 59 6 155
60 190 44 29 65 55 65 80 0 33 -12 38 -66 30 -37 -5 -54 -15 -90 -53 -25 -26
-59 -76 -77 -111 -36 -72 -86 -112 -112 -90 -13 10 -12 16 1 42 14 28 14 32 0
46 -14 14 -22 11 -83 -31 -114 -78 -225 -114 -473 -153 -159 -25 -248 -53
-257 -81 -5 -15 106 -66 140 -64 16 1 50 12 76 26 30 15 82 28 137 35 117 15
147 25 219 71 74 47 122 59 131 34 5 -13 -2 -26 -26 -45 -33 -27 -212 -121
-352 -184 -43 -20 -78 -39 -78 -45 0 -11 25 -21 54 -21 34 0 60 -33 47 -58
-13 -24 -32 -32 -79 -32 -41 1 -72 19 -72 42 0 16 -46 28 -110 28 -19 0 -100
-14 -179 -30 -153 -32 -231 -37 -290 -19 -33 10 -41 8 -95 -25 -67 -40 -82
-43 -114 -20 -29 20 -28 48 3 72 32 25 32 32 -2 32 -16 0 -67 10 -115 22 -82
21 -88 21 -100 6 -7 -10 -30 -25 -52 -33 -32 -14 -46 -14 -90 -4 -100 23 -101
24 -101 54 0 19 -7 33 -20 40 -83 42 -170 95 -226 136 -85 63 -207 191 -239
252 -23 44 -28 47 -63 47 -57 0 -78 15 -75 54 2 28 -8 44 -58 100 -32 36 -62
66 -66 66 -13 0 50 -129 94 -191 130 -184 138 -205 94 -234 -22 -15 -28 -15
-53 -2 -15 8 -40 26 -55 39 -75 65 -188 334 -188 446 0 21 -4 42 -9 48 -5 5
-11 35 -14 66 -3 31 -15 86 -27 122 l-22 66 32 55 c27 47 31 63 26 98 -15 103
-17 208 -7 273 9 59 8 80 -5 125 -39 129 27 270 92 198 16 -18 19 -35 18 -105
-2 -68 1 -84 13 -84 9 0 12 6 8 18 -3 11 2 47 11 82 9 34 14 71 11 81 -3 11 1
50 9 87 8 37 14 77 14 90 0 12 4 30 9 40 20 39 43 123 48 178 l6 58 -45 -39
c-26 -22 -42 -41 -37 -43 12 -5 11 -38 -2 -84 -8 -30 -15 -38 -33 -38 -53 0
-58 59 -10 107 19 19 22 28 13 33 -17 11 -6 80 21 133 12 23 45 70 72 104 56
70 60 101 9 57z m-123 -531 c-4 -20 -35 -30 -50 -15 -15 15 0 32 28 32 19 0
25 -5 22 -17z m-637 -423 c10 -6 19 -19 19 -30 0 -35 -83 -41 -103 -8 -23 36
37 63 84 38z m127 -232 c7 -7 12 -20 12 -30 0 -39 -84 -52 -115 -18 -17 19
-17 21 0 40 20 23 83 28 103 8z m100 -270 c34 -28 -18 -118 -68 -118 -53 0
-107 64 -85 101 22 34 118 45 153 17z m-151 -334 c6 -17 -12 -34 -37 -34 -25
0 -43 17 -37 34 4 10 18 16 37 16 19 0 33 -6 37 -16z m1015 -498 c16 -11 16
-15 2 -34 -19 -27 -63 -29 -95 -3 -20 16 -21 21 -10 35 16 19 79 21 103 2z
m2022 -56 c32 -12 33 -35 4 -54 -27 -17 -77 -10 -85 11 -6 16 24 53 43 53 7 0
24 -4 38 -10z m-1343 -260 c10 -6 19 -17 19 -25 0 -23 -57 -19 -69 4 -17 30
11 42 50 21z m160 -67 c35 -21 37 -33 6 -33 -27 0 -70 28 -62 41 9 13 23 11
56 -8z"/>
<path d="M2816 3611 c-4 -7 -5 -15 -2 -18 9 -9 19 4 14 18 -4 11 -6 11 -12 0z"/>
<path d="M6477 3563 c-4 -3 -7 -39 -7 -80 0 -60 4 -77 20 -93 22 -22 81 -27
125 -10 25 10 26 12 19 69 -6 58 -6 60 27 89 l33 30 -105 1 c-58 0 -109 -2
-112 -6z"/>
<path d="M2672 3514 c-24 -16 -29 -53 -12 -85 17 -31 28 -22 44 32 21 69 12
84 -32 53z"/>
<path d="M5936 3498 c-6 -34 -23 -212 -20 -216 6 -9 43 78 53 126 17 82 15
112 -9 112 -12 0 -21 -8 -24 -22z"/>
<path d="M2810 3469 c0 -5 5 -7 10 -4 6 3 10 8 10 11 0 2 -4 4 -10 4 -5 0 -10
-5 -10 -11z"/>
<path d="M6426 3235 c-14 -15 -16 -35 -14 -141 2 -68 4 -124 5 -124 1 0 9 12
17 28 10 20 12 46 7 100 -5 53 -3 78 6 92 8 12 10 26 5 40 -8 21 -9 21 -26 5z"/>
<path d="M4911 3166 c-32 -11 -33 -12 -27 -55 11 -83 81 -131 191 -131 l50 0
-30 20 c-16 11 -45 30 -62 41 -39 25 -39 28 -13 62 l20 25 -46 26 c-26 14 -47
25 -48 25 0 -1 -16 -7 -35 -13z"/>
<path d="M4437 2953 c-21 -20 -1 -93 33 -123 31 -27 209 -114 217 -106 5 5
-14 27 -42 50 -27 22 -82 74 -121 114 -75 75 -76 76 -87 65z"/>
<path d="M6349 2883 c-50 -65 -112 -113 -144 -113 -25 0 -38 21 -29 45 4 9 0
15 -10 15 -9 0 -27 -21 -41 -50 -103 -203 -283 -388 -487 -500 -29 -17 -49
-30 -44 -30 5 0 41 18 80 39 87 47 133 60 142 37 9 -23 -10 -42 -88 -87 -38
-22 -67 -46 -65 -52 16 -51 271 29 375 118 23 20 65 76 93 123 28 48 71 109
95 135 56 62 78 133 54 177 -5 10 -7 26 -4 34 9 23 45 20 51 -4 3 -11 9 -20
14 -20 9 0 10 4 15 78 2 24 12 59 23 78 29 49 20 42 -30 -23z"/>
<path d="M5525 2764 c-65 -33 -83 -52 -91 -93 -7 -33 -6 -34 20 -27 40 10 98
49 130 86 48 58 19 74 -59 34z"/>
<path d="M5877 2718 c-13 -18 -32 -46 -41 -63 -34 -58 -153 -123 -178 -96 -11
10 -8 17 15 35 58 47 25 41 -123 -22 -75 -31 -132 -46 -275 -71 -224 -39 -275
-51 -275 -62 0 -10 30 -15 204 -33 76 -8 144 -20 150 -26 16 -16 -11 -36 -79
-58 -76 -24 -78 -42 -5 -59 70 -16 131 -5 231 43 181 86 324 212 383 336 36
78 44 108 27 108 -6 0 -21 -15 -34 -32z"/>
<path d="M3388 2633 c-31 -37 -78 -138 -78 -169 0 -23 22 -69 75 -156 42 -68
84 -131 94 -142 30 -30 63 -15 94 43 31 56 34 83 11 102 -29 24 -53 85 -72
189 -17 87 -24 108 -46 127 -32 27 -58 29 -78 6z"/>
<path d="M6010 2233 c-8 -4 -61 -28 -118 -54 -196 -92 -247 -112 -380 -145
-180 -46 -261 -54 -402 -40 -114 10 -265 12 -450 5 -86 -4 -105 -1 -202 30
-98 31 -138 35 -138 13 0 -15 129 -68 208 -86 41 -9 135 -21 210 -26 76 -6
149 -12 164 -15 15 -2 57 2 95 10 91 18 363 38 416 30 57 -9 107 -25 107 -34
0 -50 -268 -111 -485 -111 -38 0 -120 -5 -182 -11 -134 -12 -186 -2 -448 86
-232 79 -249 71 -128 -57 88 -94 96 -98 319 -143 158 -32 226 -32 387 5 73 16
202 39 287 50 212 29 327 55 445 101 95 37 206 100 233 131 14 17 18 65 8 94
-5 16 5 38 39 88 55 81 58 95 15 79z"/>
<path d="M6302 2166 c-19 -21 -27 -36 -19 -36 18 0 60 46 55 60 -2 6 -18 -5
-36 -24z"/>
<path d="M4160 1711 c0 -5 6 -14 14 -20 8 -6 16 -21 19 -31 6 -25 -33 -38 -66
-23 -16 7 -28 6 -44 -4 -23 -15 -63 -9 -63 9 0 6 7 16 17 23 14 10 6 14 -51
25 -37 7 -70 10 -73 6 -11 -10 24 -40 103 -91 73 -46 79 -48 162 -51 47 -2
103 -9 126 -15 94 -24 278 -102 316 -134 8 -7 39 -15 69 -19 l54 -7 -27 32
c-15 18 -26 41 -24 53 3 19 9 21 63 21 33 0 126 -9 206 -19 89 -12 157 -16
175 -11 29 8 29 8 -13 16 -23 4 -56 15 -75 25 -23 12 -65 18 -143 21 -64 2
-146 13 -195 25 -122 29 -396 120 -457 152 -52 26 -93 34 -93 17z"/>
</g>
</svg>
